<?xml version="1.0" encoding="iso-8859-1"?>
<!-- Uploaded to: SVG Repo, www.svgrepo.com, Generator: SVG Repo Mixer Tools -->
<!DOCTYPE svg PUBLIC "-//W3C//DTD SVG 1.1//EN" "http://www.w3.org/Graphics/SVG/1.1/DTD/svg11.dtd">
<svg version="1.1" id="Capa_1" xmlns="http://www.w3.org/2000/svg" xmlns:xlink="http://www.w3.org/1999/xlink" 
	 viewBox="0 0 58 58" xml:space="preserve">
<rect x="26.5" y="27" style="fill:#C7CAC7;" width="4" height="3"/>
<g>
	<path style="fill:#C7CAC7;" d="M44.483,48.916c-0.006-0.07-0.02-0.134-0.04-0.2c-0.018-0.06-0.037-0.117-0.066-0.172
		c-0.03-0.058-0.066-0.108-0.107-0.159c-0.04-0.05-0.079-0.096-0.128-0.137c-0.048-0.041-0.1-0.073-0.156-0.105
		c-0.058-0.033-0.116-0.061-0.182-0.082c-0.028-0.009-0.05-0.029-0.08-0.036l-13-3c-0.536-0.121-1.075,0.211-1.2,0.75
		c-0.124,0.539,0.211,1.075,0.75,1.2l0.163,0.038c-0.234,0.015-0.465,0.102-0.645,0.281c-0.391,0.391-0.391,1.023,0,1.414l3,3
		C32.988,51.902,33.244,52,33.5,52s0.512-0.098,0.707-0.293c0.391-0.391,0.391-1.023,0-1.414l-3-3
		c-0.07-0.07-0.155-0.113-0.238-0.158L42.5,49.796V51c0,0.552,0.448,1,1,1s1-0.448,1-1v-2C44.5,48.97,44.486,48.945,44.483,48.916z"
		/>
	<path style="fill:#C7CAC7;" d="M29.5,41c0-0.552-0.448-1-1-1s-1,0.448-1,1v4c0,0.552,0.448,1,1,1s1-0.448,1-1V41z"/>
	<path style="fill:#C7CAC7;" d="M26.562,47.012l0.163-0.038c0.538-0.125,0.874-0.661,0.75-1.2c-0.125-0.539-0.664-0.873-1.2-0.75
		l-13,3c-0.03,0.007-0.051,0.027-0.08,0.036c-0.065,0.021-0.123,0.049-0.182,0.082c-0.056,0.032-0.108,0.064-0.156,0.105
		c-0.048,0.041-0.088,0.087-0.128,0.137c-0.041,0.051-0.077,0.101-0.107,0.159c-0.029,0.055-0.048,0.112-0.066,0.172
		c-0.02,0.066-0.034,0.13-0.04,0.2C12.514,48.945,12.5,48.97,12.5,49v2c0,0.552,0.448,1,1,1s1-0.448,1-1v-1.204l11.531-2.661
		c-0.083,0.045-0.168,0.088-0.238,0.158l-3,3c-0.391,0.391-0.391,1.023,0,1.414C22.988,51.902,23.244,52,23.5,52
		s0.512-0.098,0.707-0.293l3-3c0.391-0.391,0.391-1.023,0-1.414C27.028,47.114,26.797,47.027,26.562,47.012z"/>
</g>
<rect x="25.5" y="35" style="fill:#546A79;" width="6" height="3"/>
<rect x="26.5" y="38" style="fill:#38454F;" width="4" height="3"/>
<rect x="26.5" y="45" style="fill:#AFB6BB;" width="4" height="4.038"/>
<line style="fill:none;stroke:#AFB6BB;stroke-width:2;stroke-linecap:round;stroke-miterlimit:10;" x1="36.5" y1="39" x2="39.5" y2="39"/>
<line style="fill:none;stroke:#AFB6BB;stroke-width:2;stroke-linecap:round;stroke-miterlimit:10;" x1="36.5" y1="39" x2="32.5" y2="35"/>
<circle style="fill:#38454F;" cx="13" cy="54.5" r="3.5"/>
<circle style="fill:#38454F;" cx="44" cy="54.5" r="3.5"/>
<circle style="fill:#38454F;" cx="23" cy="54.5" r="3.5"/>
<circle style="fill:#38454F;" cx="34" cy="54.5" r="3.5"/>
<path style="fill:none;stroke:#C7CAC7;stroke-width:2;stroke-linecap:round;stroke-miterlimit:10;" d="M13.5,33L13.5,33
	c-2.209,0-4-1.791-4-4v-3"/>
<rect x="6.5" y="22" style="fill:#546A79;" width="6" height="4"/>
<path style="fill:none;stroke:#C7CAC7;stroke-width:2;stroke-linecap:round;stroke-miterlimit:10;" d="M44.5,33L44.5,33
	c2.209,0,4-1.791,4-4v-3"/>
<rect x="45.5" y="22" style="fill:#546A79;" width="6" height="4"/>
<path style="fill:#7383BF;" d="M41,29H16c-1.93,0-3.5,1.57-3.5,3.5S14.07,36,16,36h25c1.93,0,3.5-1.57,3.5-3.5S42.93,29,41,29z"/>
<path style="fill:#556080;" d="M36.564,27H20.436c-1.455,0-2.702-1.031-2.967-2.451L13.551,3.542C13.208,1.7,14.632,0,16.519,0
	h23.963c1.887,0,3.311,1.7,2.967,3.542l-3.918,21.007C39.266,25.969,38.019,27,36.564,27z"/>
<circle style="fill:#7383BF;" cx="25.5" cy="8" r="1"/>
<circle style="fill:#7383BF;" cx="31.5" cy="8" r="1"/>
<circle style="fill:#7383BF;" cx="28.5" cy="11" r="1"/>
<circle style="fill:#7383BF;" cx="28.5" cy="17" r="1"/>
<circle style="fill:#7383BF;" cx="25.5" cy="14" r="1"/>
<circle style="fill:#7383BF;" cx="31.5" cy="14" r="1"/>
<circle style="fill:#7383BF;" cx="25.5" cy="20" r="1"/>
<circle style="fill:#7383BF;" cx="31.5" cy="20" r="1"/>
<line style="fill:none;stroke:#7383BF;stroke-width:2;stroke-linecap:round;stroke-miterlimit:10;" x1="4.5" y1="22" x2="14.5" y2="22"/>
<line style="fill:none;stroke:#7383BF;stroke-width:2;stroke-linecap:round;stroke-miterlimit:10;" x1="43.5" y1="22" x2="53.5" y2="22"/>
</svg>